<?xml version="1.0" encoding="UTF-8"?>
<svg width="211.2" height="160.8" version="1.1" viewBox="0 0 211.2 160.8" xmlns="http://www.w3.org/2000/svg">
 <rect y="-.78775" width="211.91" height="161.49" display="none" fill="#d35f5f"/>
 <path d="m102.64 15.662-8.1406 19.283c-4.4768 10.606-9.275 21.859-10.662 25.006-1.3871 3.1472-2.5215 5.8864-2.5215 6.0859 0 0.19949-0.94131 2.5134-2.0918 5.1426-8.5177 19.465-8.2803 18.267-4.9961 24.992 1.5208 3.1141 3.0509 5.4791 3.4004 5.2559 0.34946-0.22324 5.5603-12.052 11.578-26.285l10.941-25.879 0.22852 33.947 0.23242 33.945h5.252 5.252l-0.22657-50.479-0.22656-50.477-8.0195-0.53906zm20.941 2.8027c-0.12038-2.5e-4 -0.21879 2.5458-0.21679 5.6582l0.0039 5.6602 3.8086 1.6172c12.486 5.3067 23.841 18.864 28.223 33.693 2.2295 7.5467 2.2532 22.619 0.04493 29.426-4.3514 13.412-10.988 22.751-21.174 29.793-9.2765 6.4133-16.724 8.6894-28.428 8.6894-11.704 0-19.153-2.2762-28.43-8.6894-14.575-10.076-22.766-25.825-22.795-43.824-0.013358-8.2865 1.5596-17.658 2.9648-17.658 0.3118 0 2.2269 3.4644 4.2578 7.6973 2.031 4.2329 4.0221 7.6973 4.4219 7.6973 0.39978 0 1.7812-2.6557 3.0703-5.9004l2.3438-5.9004-13.693-28.262-2.6699 4.4121c-6.8918 11.381-9.5434 18.517-10.879 29.281-3.7818 30.481 13.893 59.764 41.764 69.189 7.8475 2.6541 11.993 3.2012 21.834 2.877 7.337-0.24179 11.307-0.87416 16.643-2.6524 23.068-7.6872 39.483-28.145 42.574-53.057 3.1158-25.114-8.6308-50.547-29.061-62.924-4.3155-2.6144-13.317-6.8198-14.607-6.8242z" fill="#e3dbdb"/>
</svg>
